<svg xmlns="http://www.w3.org/2000/svg" width="1400" height="700" viewBox="0 0 1400 700" role="img" aria-labelledby="title desc">
  <title id="title">Cortex-A53 / Cortex-R5F Pipeline</title>
  <desc id="desc">A Cortex-A53 Ubuntu vision pipeline connected over OpenAMP and RPMsg to FreeRTOS communication, mailbox, periodic control, watchdog, and output-control stages on the Cortex-R5F. The periodic control task returns CONTROL_STATUS to the A53 display.</desc>

  <defs>
    <filter id="shadow" x="-20%" y="-30%" width="140%" height="170%">
      <feDropShadow dx="0" dy="10" stdDeviation="12" flood-color="#0f172a" flood-opacity="0.10"/>
    </filter>
  </defs>

  <rect width="1400" height="700" rx="28" fill="#f8fafc"/>

  <g transform="translate(0 -90)">
  <rect x="48" y="148" width="1304" height="144" rx="24" fill="none" stroke="#6366f1" stroke-width="2"/>
  <rect x="72" y="132" width="216" height="34" rx="17" fill="#6366f1"/>
  <text x="180" y="155" fill="#ffffff" font-family="Inter, ui-sans-serif, system-ui, -apple-system, sans-serif" font-size="16" font-weight="700" text-anchor="middle">Cortex-A53 (Ubuntu)</text>

  <rect x="48" y="470" width="1304" height="280" rx="24" fill="none" stroke="#0f9f8f" stroke-width="2"/>
  <rect x="72" y="454" width="234" height="34" rx="17" fill="#0f9f8f"/>
  <text x="189" y="477" fill="#ffffff" font-family="Inter, ui-sans-serif, system-ui, -apple-system, sans-serif" font-size="16" font-weight="700" text-anchor="middle">Cortex-R5F (FreeRTOS)</text>

  <g fill="#64748b" stroke="#64748b" stroke-width="4" stroke-linecap="round">
    <path d="M 274 220 H 325"/>
    <path d="M 325 211 L 337 220 L 325 229 Z" stroke="none"/>
    <path d="M 537 220 H 588"/>
    <path d="M 588 211 L 600 220 L 588 229 Z" stroke="none"/>
    <path d="M 800 220 H 851"/>
    <path d="M 851 211 L 863 220 L 851 229 Z" stroke="none"/>
    <path d="M 1063 220 H 1114"/>
    <path d="M 1114 211 L 1126 220 L 1114 229 Z" stroke="none"/>
    <path d="M 963 264 V 390 H 350 V 498" fill="none"/>
    <path d="M 341 498 L 350 510 L 359 498 Z" stroke="none"/>
    <path d="M 490 554 H 538"/>
    <path d="M 538 545 L 550 554 L 538 563 Z" stroke="none"/>
    <path d="M 810 554 H 858"/>
    <path d="M 858 545 L 870 554 L 858 563 Z" stroke="none"/>
    <path d="M 1040 598 V 638"/>
    <path d="M 1031 638 L 1040 650 L 1049 638 Z" stroke="none"/>
  </g>

  <rect x="547" y="358" width="206" height="64" rx="18" fill="#ffffff" stroke="#94a3b8"/>
  <text x="650" y="384" fill="#0f172a" font-family="Inter, ui-sans-serif, system-ui, -apple-system, sans-serif" font-size="14" font-weight="700" text-anchor="middle">Vision Result</text>
  <text x="650" y="408" fill="#475569" font-family="Inter, ui-sans-serif, system-ui, -apple-system, sans-serif" font-size="14" font-weight="700" text-anchor="middle">OpenAMP / RPMsg</text>

  <g fill="#0f9f8f" stroke="#0f9f8f" stroke-width="4" stroke-linecap="round">
    <path d="M 1210 554 H 1226 V 276" fill="none"/>
    <path d="M 1217 276 L 1226 264 L 1235 276 Z" stroke="none"/>
  </g>
  <rect x="1123" y="335" width="206" height="64" rx="18" fill="#ffffff" stroke="#0f9f8f"/>
  <text x="1226" y="361" fill="#0f766e" font-family="Inter, ui-sans-serif, system-ui, -apple-system, sans-serif" font-size="14" font-weight="700" text-anchor="middle">CONTROL_STATUS</text>
  <text x="1226" y="385" fill="#475569" font-family="Inter, ui-sans-serif, system-ui, -apple-system, sans-serif" font-size="14" font-weight="700" text-anchor="middle">OpenAMP / RPMsg</text>

  <g font-family="Inter, ui-sans-serif, system-ui, -apple-system, sans-serif" text-anchor="middle">
    <g>
      <rect x="74" y="176" width="200" height="88" rx="18" fill="#ffffff" stroke="#cbd5e1" filter="url(#shadow)"/>
      <rect x="74" y="176" width="8" height="88" rx="4" fill="#06b6d4"/>
      <text x="174" y="230" fill="#0f172a" font-size="28" font-weight="700">CIS</text>
    </g>
    <g>
      <rect x="337" y="176" width="200" height="88" rx="18" fill="#ffffff" stroke="#cbd5e1" filter="url(#shadow)"/>
      <rect x="337" y="176" width="8" height="88" rx="4" fill="#3b82f6"/>
      <text x="437" y="230" fill="#0f172a" font-size="28" font-weight="700">ISP</text>
    </g>
    <g>
      <rect x="600" y="176" width="200" height="88" rx="18" fill="#ffffff" stroke="#cbd5e1" filter="url(#shadow)"/>
      <rect x="600" y="176" width="8" height="88" rx="4" fill="#6366f1"/>
      <text x="700" y="230" fill="#0f172a" font-size="28" font-weight="700">DPU</text>
    </g>
    <g>
      <rect x="863" y="176" width="200" height="88" rx="18" fill="#ffffff" stroke="#cbd5e1" filter="url(#shadow)"/>
      <rect x="863" y="176" width="8" height="88" rx="4" fill="#8b5cf6"/>
      <text x="963" y="230" fill="#0f172a" font-size="28" font-weight="700">Post</text>
    </g>
    <g>
      <rect x="1126" y="176" width="200" height="88" rx="18" fill="#ffffff" stroke="#cbd5e1" filter="url(#shadow)"/>
      <rect x="1126" y="176" width="8" height="88" rx="4" fill="#ec4899"/>
      <text x="1226" y="230" fill="#0f172a" font-size="28" font-weight="700">Disp</text>
    </g>
    <g>
      <rect x="210" y="510" width="280" height="88" rx="18" fill="#ffffff" stroke="#99d8d0" filter="url(#shadow)"/>
      <rect x="210" y="510" width="8" height="88" rx="4" fill="#0f9f8f"/>
      <text x="350" y="547" fill="#0f172a" font-size="19" font-weight="700">RPMsg Task / RX Callback</text>
      <text x="350" y="575" fill="#64748b" font-size="14" font-weight="600">Priority 2 · Validate + Copy</text>
    </g>
    <g>
      <rect x="550" y="510" width="260" height="88" rx="18" fill="#ffffff" stroke="#99d8d0" filter="url(#shadow)"/>
      <rect x="550" y="510" width="8" height="88" rx="4" fill="#14b8a6"/>
      <text x="680" y="561" fill="#0f172a" font-size="19" font-weight="700">Latest-Value Mailbox</text>
    </g>
    <g>
      <rect x="870" y="510" width="340" height="88" rx="18" fill="#ffffff" stroke="#99d8d0" filter="url(#shadow)"/>
      <rect x="870" y="510" width="8" height="88" rx="4" fill="#2dd4bf"/>
      <text x="1040" y="549" fill="#0f172a" font-size="21" font-weight="700">10 ms Periodic Control Task</text>
      <text x="1040" y="576" fill="#64748b" font-size="15" font-weight="600">Priority 4</text>
    </g>
    <g>
      <rect x="790" y="650" width="500" height="88" rx="18" fill="#ffffff" stroke="#99d8d0" filter="url(#shadow)"/>
      <rect x="790" y="650" width="8" height="88" rx="4" fill="#5eead4"/>
      <text x="1040" y="687" fill="#0f172a" font-size="21" font-weight="700">Watchdog / Output Control</text>
      <text x="1040" y="715" fill="#64748b" font-size="15" font-weight="600">Future: GPIO / PWM / Motor / Servo</text>
    </g>
  </g>
  </g>
</svg>
