<svg xmlns="http://www.w3.org/2000/svg" width="1400" height="260" viewBox="0 0 1400 260" role="img" aria-labelledby="title desc">
  <title id="title">Original Smart Camera Pipeline</title>
  <desc id="desc">A horizontal pipeline from CIS through ISP, DPU, Post, and Disp.</desc>

  <defs>
    <filter id="shadow" x="-20%" y="-30%" width="140%" height="170%">
      <feDropShadow dx="0" dy="10" stdDeviation="12" flood-color="#0f172a" flood-opacity="0.10"/>
    </filter>
  </defs>

  <rect width="1400" height="260" rx="28" fill="#f8fafc"/>

  <g transform="translate(0 -90)">
  <rect x="48" y="148" width="1304" height="144" rx="24" fill="none" stroke="#6366f1" stroke-width="2"/>
  <rect x="72" y="132" width="258" height="34" rx="17" fill="#6366f1"/>
  <text x="201" y="155" fill="#ffffff" font-family="Inter, ui-sans-serif, system-ui, -apple-system, sans-serif" font-size="16" font-weight="700" text-anchor="middle">Cortex-A53 (Ubuntu / Docker)</text>

  <g fill="#64748b" stroke="#64748b" stroke-width="4" stroke-linecap="round">
    <path d="M 274 220 H 325"/>
    <path d="M 325 211 L 337 220 L 325 229 Z" stroke="none"/>
    <path d="M 537 220 H 588"/>
    <path d="M 588 211 L 600 220 L 588 229 Z" stroke="none"/>
    <path d="M 800 220 H 851"/>
    <path d="M 851 211 L 863 220 L 851 229 Z" stroke="none"/>
    <path d="M 1063 220 H 1114"/>
    <path d="M 1114 211 L 1126 220 L 1114 229 Z" stroke="none"/>
  </g>

  <g font-family="Inter, ui-sans-serif, system-ui, -apple-system, sans-serif" text-anchor="middle">
    <g>
      <rect x="74" y="176" width="200" height="88" rx="18" fill="#ffffff" stroke="#cbd5e1" filter="url(#shadow)"/>
      <rect x="74" y="176" width="8" height="88" rx="4" fill="#06b6d4"/>
      <text x="174" y="230" fill="#0f172a" font-size="28" font-weight="700">CIS</text>
    </g>
    <g>
      <rect x="337" y="176" width="200" height="88" rx="18" fill="#ffffff" stroke="#cbd5e1" filter="url(#shadow)"/>
      <rect x="337" y="176" width="8" height="88" rx="4" fill="#3b82f6"/>
      <text x="437" y="230" fill="#0f172a" font-size="28" font-weight="700">ISP</text>
    </g>
    <g>
      <rect x="600" y="176" width="200" height="88" rx="18" fill="#ffffff" stroke="#cbd5e1" filter="url(#shadow)"/>
      <rect x="600" y="176" width="8" height="88" rx="4" fill="#6366f1"/>
      <text x="700" y="230" fill="#0f172a" font-size="28" font-weight="700">DPU</text>
    </g>
    <g>
      <rect x="863" y="176" width="200" height="88" rx="18" fill="#ffffff" stroke="#cbd5e1" filter="url(#shadow)"/>
      <rect x="863" y="176" width="8" height="88" rx="4" fill="#8b5cf6"/>
      <text x="963" y="230" fill="#0f172a" font-size="28" font-weight="700">Post</text>
    </g>
    <g>
      <rect x="1126" y="176" width="200" height="88" rx="18" fill="#ffffff" stroke="#cbd5e1" filter="url(#shadow)"/>
      <rect x="1126" y="176" width="8" height="88" rx="4" fill="#ec4899"/>
      <text x="1226" y="230" fill="#0f172a" font-size="28" font-weight="700">Disp</text>
    </g>
  </g>
  </g>
</svg>
